# xmcd CD database file
#
# Track frame offsets:
#	150
#	10990
#	29817
#	50897
#	63202
#	82425
#	92962
#	118227
#	130485
#	145597
#
# Disc length: 2471 seconds
#
# Revision: 17
# Processed by: cddbd v1.4PL0 Copyright (c) Steve Scherf et al.
# Submitted via: CDex 1.40Beta5
#
DISCID=9b09a50a
DTITLE=Stevie Ray Vaughan And Double Trouble - In Step
DYEAR=1900
DGENRE=Blues
TTITLE0=The House Is Rockin'
TTITLE1=Crossfire
TTITLE2=Tightrope
TTITLE3=Let Me Love You Baby
TTITLE4=Leave My Girl Alone
TTITLE5=Travis Walk
TTITLE6=Wall of Denial
TTITLE7=Scratch-N-Sniff
TTITLE8=Love Me Darlin'
TTITLE9=Riviera Paradise
EXTD=LABEL =CBS Records Inc.\nID =EK45024\nUPC =07464-45024-2\nCOPYRIGHT 
EXTD==1989 ID3G:   0
EXTT0=
EXTT1=
EXTT2=
EXTT3=
EXTT4=
EXTT5=
EXTT6=
EXTT7=
EXTT8=
EXTT9=
PLAYORDER=
